# xmcd
#
# Track frame offsets:
#	150
#	25890
#	45570
#
# Disc length: 839 seconds
#
# Revision: 0
# Processed by: cddbd v1.5.1PL0 Copyright (c) Steve Scherf et al.
# Submitted via: audiograbber 1.82.01
#
DISCID=1b034503
DTITLE=Joe Satriani - Cryin' [CD Single)
DYEAR=1994
DGENRE=Instrumental Rock
TTITLE0=Cryin' (Album Version)
TTITLE1=All Alone (Album Version)
TTITLE2=Cryin' (Radio Edit)
EXTD=
EXTT0=
EXTT1=
EXTT2=
PLAYORDER=
